<svg width="86" height="105" viewBox="0 0 86 105" fill="none" xmlns="http://www.w3.org/2000/svg">
<path d="M62.8503 70.2323C62.1676 70.2323 61.492 70.202 60.8245 70.1432V84.0088H4.66959V17.5633H60.8245V28.7879C61.492 28.7291 62.1676 28.6989 62.8503 28.6989C63.5329 28.6989 64.2085 28.7291 64.876 28.7879V10.1725C64.876 4.79315 60.4883 0.416702 55.095 0.416702H10.3991C5.00586 0.416702 0.618164 4.79315 0.618164 10.1725V94.4817C0.618164 99.8712 4.99755 104.256 10.3807 104.256H55.1135C60.4966 104.256 64.876 99.8712 64.876 94.4817V70.1432C64.2087 70.2022 63.5329 70.2323 62.8503 70.2323ZM4.66959 10.1725C4.66959 7.02955 7.23981 4.47292 10.3991 4.47292H55.095C58.2543 4.47292 60.8245 7.02955 60.8245 10.1725V13.5071H4.66959V10.1725ZM60.8245 94.4817C60.8245 97.6346 58.2626 100.2 55.1135 100.2H10.3807C7.23171 100.2 4.66959 97.6346 4.66959 94.4817V88.065H60.8245V94.4817Z" fill="black"/>
<path d="M31.3966 96.1604H34.0975C35.2163 96.1604 36.1232 95.2522 36.1232 94.1323C36.1232 93.0122 35.2163 92.1042 34.0975 92.1042H31.3966C30.2778 92.1042 29.3709 93.0122 29.3709 94.1323C29.3709 95.2522 30.2778 96.1604 31.3966 96.1604Z" fill="black"/>
<path d="M62.8502 26.6708C50.2758 26.6708 40.0824 36.8764 40.0824 49.4657C40.0824 54.4635 41.689 59.0854 44.4132 62.8425L40.0824 71.5688L52.6667 69.8587C55.731 71.3954 59.1897 72.2604 62.8502 72.2604C75.4246 72.2604 85.6182 62.0547 85.6182 49.4657C85.6182 36.8766 75.4246 26.6708 62.8502 26.6708Z" fill="#0336DB"/>
<path d="M65.0226 55.3658H64.8759V47.8788H65.0226C66.1414 47.8788 67.0483 46.9706 67.0483 45.8507C67.0483 44.7308 66.1414 43.8226 65.0226 43.8226H60.6781C59.5593 43.8226 58.6523 44.7308 58.6523 45.8507C58.6523 46.9706 59.5593 47.8788 60.6781 47.8788H60.8247V55.3658H60.6781C59.5593 55.3658 58.6523 56.274 58.6523 57.3939C58.6523 58.5138 59.5593 59.422 60.6781 59.422H65.0226C66.1414 59.422 67.0483 58.5138 67.0483 57.3939C67.0483 56.274 66.1414 55.3658 65.0226 55.3658Z" fill="white"/>
</svg>
