<svg width="24" height="25" viewBox="0 0 24 25" fill="none" xmlns="http://www.w3.org/2000/svg">
<path d="M17.3766 0H6.62295C2.97106 0 0 3.09021 0 6.88838V18.0728C0 21.8711 2.97106 24.9612 6.62295 24.9612H17.3766C21.0288 24.9612 23.9999 21.871 23.9999 18.0728V6.88838C24 3.09021 21.0288 0 17.3766 0ZM21.8706 18.0728C21.8706 20.6499 19.8547 22.7465 17.3768 22.7465H6.62295C4.1452 22.7466 2.12938 20.6499 2.12938 18.0728V6.88838C2.12938 4.31138 4.1452 2.21468 6.62295 2.21468H17.3766C19.8545 2.21468 21.8705 4.31138 21.8705 6.88838V18.0728H21.8706Z" fill="white"/>
<path d="M11.9999 6.04907C8.58992 6.04907 5.81576 8.93435 5.81576 12.4809C5.81576 16.0274 8.58992 18.9125 11.9999 18.9125C15.4099 18.9125 18.1841 16.0274 18.1841 12.4809C18.1841 8.93435 15.4099 6.04907 11.9999 6.04907ZM11.9999 16.6977C9.7642 16.6977 7.94514 14.806 7.94514 12.4808C7.94514 10.1554 9.76406 8.2636 11.9999 8.2636C14.2358 8.2636 16.0547 10.1554 16.0547 12.4808C16.0547 14.806 14.2356 16.6977 11.9999 16.6977Z" fill="white"/>
<path d="M18.4435 4.17114C18.0333 4.17114 17.6303 4.34389 17.3405 4.64656C17.0494 4.94776 16.882 5.36707 16.882 5.79524C16.882 6.22208 17.0495 6.64124 17.3405 6.94392C17.6301 7.24511 18.0333 7.41933 18.4435 7.41933C18.8552 7.41933 19.2569 7.24511 19.548 6.94392C19.839 6.64124 20.0051 6.22193 20.0051 5.79524C20.0051 5.36707 19.839 4.94776 19.548 4.64656C19.2584 4.34389 18.8552 4.17114 18.4435 4.17114Z" fill="white"/>
</svg>
