<svg width="25" height="21" viewBox="0 0 25 21" fill="none" xmlns="http://www.w3.org/2000/svg">
<path d="M23.4443 17.8489H1.55556C0.696449 17.8489 0 18.5453 0 19.4044C0 20.2636 0.69645 20.96 1.55556 20.96H23.4443C24.3034 20.96 24.9998 20.2636 24.9998 19.4044C24.9998 18.5453 24.3034 17.8489 23.4443 17.8489Z" fill="white"/>
<path d="M23.4443 9.40454H1.55556C0.69645 9.40454 0 10.101 0 10.9601C0 11.8192 0.696449 12.5157 1.55556 12.5157H23.4443C24.3034 12.5157 24.9998 11.8192 24.9998 10.9601C24.9998 10.101 24.3034 9.40454 23.4443 9.40454Z" fill="white"/>
<path d="M23.4443 0.960205H1.55556C0.69645 0.960205 0 1.65665 0 2.51577C0 3.37488 0.696449 4.07133 1.55556 4.07133H23.4443C24.3034 4.07133 24.9998 3.37488 24.9998 2.51577C24.9998 1.65665 24.3034 0.960205 23.4443 0.960205Z" fill="white"/>
</svg>
