<svg width="15" height="15" viewBox="0 0 15 15" fill="none" xmlns="http://www.w3.org/2000/svg">
<path fill-rule="evenodd" clip-rule="evenodd" d="M5.08675 7.24794L1.65209 3.4083C1.019 2.70059 1.11068 1.65078 1.85683 1.06349C2.60296 0.476198 3.72103 0.573821 4.35412 1.28153L7.5505 4.85478L11.2284 1.28225C11.9076 0.622412 13.0273 0.602907 13.7291 1.23868C14.431 1.87446 14.4493 2.92476 13.77 3.58459L9.83416 7.40772L13.577 11.5919C14.2101 12.2996 14.1185 13.3494 13.3723 13.9367C12.6262 14.524 11.5081 14.4264 10.8751 13.7187L7.37044 9.80087L3.77157 13.2967C3.09227 13.9565 1.97265 13.976 1.27077 13.3402C0.568929 12.7045 0.550618 11.6542 1.22991 10.9943L5.08675 7.24794Z" fill="white"/>
</svg>
