<svg width="24" height="24" viewBox="0 0 24 24" fill="none" xmlns="http://www.w3.org/2000/svg">
<path d="M22.98 5.33168C22.329 4.17547 21.6225 3.9628 20.184 3.88193C18.747 3.78458 15.1335 3.74414 12.003 3.74414C8.8665 3.74414 5.2515 3.78458 3.816 3.88043C2.3805 3.9628 1.6725 4.17397 1.0155 5.33168C0.345 6.48639 0 8.47531 0 11.9769C0 11.9799 0 11.9814 0 11.9814C0 11.9844 0 11.9859 0 11.9859V11.9889C0 15.4755 0.345 17.4794 1.0155 18.6221C1.6725 19.7783 2.379 19.988 3.8145 20.0853C5.2515 20.1692 8.8665 20.2186 12.003 20.2186C15.1335 20.2186 18.747 20.1692 20.1855 20.0868C21.624 19.9895 22.3305 19.7798 22.9815 18.6236C23.658 17.4809 24 15.477 24 11.9904C24 11.9904 24 11.9859 24 11.9829C24 11.9829 24 11.9799 24 11.9784C24 8.47531 23.658 6.48639 22.98 5.33168ZM9 16.4744V7.48834L16.5 11.9814L9 16.4744Z" fill="white"/>
</svg>
