<svg width="86" height="105" fill="none" xmlns="http://www.w3.org/2000/svg"><path d="M62.85 70.232c-.682 0-1.358-.03-2.026-.089V84.01H4.67V17.563h56.154v11.225a23.08 23.08 0 014.052 0V10.172c0-5.379-4.388-9.755-9.781-9.755H10.399C5.006.417.62 4.793.62 10.172v84.31c0 5.39 4.379 9.774 9.762 9.774h44.733c5.383 0 9.762-4.385 9.762-9.774V70.143a23 23 0 01-2.026.09zM4.67 10.172c0-3.142 2.57-5.7 5.73-5.7h44.695c3.16 0 5.73 2.558 5.73 5.7v3.335H4.67v-3.335zm56.154 84.31c0 3.153-2.561 5.718-5.71 5.718H10.38c-3.15 0-5.711-2.565-5.711-5.718v-6.417h56.154v6.417z" fill="#000"/><path d="M31.397 96.16h2.7a2.027 2.027 0 002.026-2.028c0-1.12-.907-2.028-2.026-2.028h-2.7a2.027 2.027 0 00-2.026 2.028c0 1.12.907 2.028 2.026 2.028z" fill="#000"/><path d="M62.85 26.67c-12.574 0-22.768 10.206-22.768 22.796a22.71 22.71 0 004.331 13.377l-4.33 8.726 12.584-1.71A22.653 22.653 0 0062.85 72.26c12.575 0 22.768-10.205 22.768-22.794 0-12.59-10.193-22.795-22.768-22.795z" fill="#0336DB"/><path d="M65.023 55.366h-.147v-7.487h.147a2.027 2.027 0 002.025-2.028c0-1.12-.907-2.028-2.025-2.028h-4.345a2.027 2.027 0 00-2.026 2.028c0 1.12.907 2.028 2.026 2.028h.147v7.487h-.147a2.027 2.027 0 00-2.026 2.028c0 1.12.907 2.028 2.026 2.028h4.345a2.027 2.027 0 002.025-2.028c0-1.12-.907-2.028-2.025-2.028z" fill="#fff"/></svg>