<svg width="104" height="105" fill="none" xmlns="http://www.w3.org/2000/svg"><path d="M72.831 54c10.636 0 19.257-8.704 19.257-19.442 0-10.737-8.621-19.442-19.257-19.442-10.635 0-19.257 8.705-19.257 19.442 0 10.738 8.622 19.443 19.257 19.443z" fill="#0336DB"/><path d="M72.831 65.075c16.667 0 30.226-13.69 30.226-30.516 0-16.827-13.56-30.517-30.226-30.517-16.666 0-30.226 13.69-30.226 30.517 0 16.826 13.56 30.516 30.226 30.516zm0-56.931c14.427 0 26.164 11.85 26.164 26.415S87.258 60.973 72.83 60.973c-14.426 0-26.163-11.85-26.163-26.414 0-14.566 11.737-26.415 26.163-26.415z" fill="#000"/><path d="M69.42 39.68a2.018 2.018 0 00-2.856-.31 2.064 2.064 0 00-.308 2.883c1.12 1.403 2.725 2.2 4.324 2.583a2.04 2.04 0 002.025 1.881 2.038 2.038 0 002.007-1.734c2.86-.515 4.868-2.438 5.197-5.056.383-3.041-1.57-5.958-4.75-7.093-.146-.051-.286-.102-.423-.151v-3.951c.17.109.295.228.375.342a2.018 2.018 0 002.83.501c.918-.65 1.14-1.93.496-2.857-.739-1.063-2.03-1.965-3.702-2.337a2.04 2.04 0 00-2.03-1.981 2.041 2.041 0 00-2.032 2.05v.07c-.124.032-.25.068-.376.106-2.133.649-3.742 2.734-3.913 5.071-.17 2.323 1.047 4.337 3.256 5.39.241.114.593.264 1.033.441v5c-.465-.212-.87-.494-1.153-.848zm6.36-.27c-.076.6-.48 1.06-1.144 1.331V37.18c.892.633 1.232 1.53 1.143 2.231zM70.334 30c.02-.264.107-.526.239-.755v1.604a1.2 1.2 0 01-.239-.849z" fill="#fff"/><path d="M103.992 73.797c-.107-2.49-1.251-4.63-3.22-6.028-3.245-2.302-7.625-1.902-10.416.951a1.91 1.91 0 00-.24.298l-4.457 6.703c-1.248-2.973-4.146-5.062-7.514-5.062l-32.06-.021a2.02 2.02 0 00-1.325.496l-8.032 6.976h-5.861v-1.802c0-1.133-.91-2.051-2.031-2.051h-8.944v-.28c0-1.133-.91-2.052-2.031-2.052H2.03A2.041 2.041 0 000 73.976v24.051c0 1.133.91 2.051 2.031 2.051h15.83a2.041 2.041 0 002.031-2.05v-.281h8.943a2.041 2.041 0 002.032-2.051v-1.894h6.735l6.084 6.512c.384.411.919.644 1.478.644l.028-.001 41.948-.594a2.025 2.025 0 001.639-.878l13.328-19.323.025-.037c1.29-1.96 1.951-4.207 1.86-6.328zm-88.163 22.18H4.062v-19.95H15.83v19.95zm10.975-2.332h-6.912V78.358h6.912v15.287zM98.76 77.836L86.04 96.277l-40.012.567-6.072-6.5a2.022 2.022 0 00-1.478-.643h-7.611v-7.49h6.615c.486 0 .956-.175 1.324-.496l8.031-6.975 31.307.021c2.264 0 4.106 1.894 4.106 4.223 0 2.328-1.842 4.222-4.106 4.222H60.61c-.558 0-1.09.231-1.475.64l-4.273 4.55a2.065 2.065 0 00.077 2.9 2.014 2.014 0 002.871-.078l3.673-3.91h20.281c.678 0 1.31-.34 1.687-.908l9.92-14.92a3.99 3.99 0 015.064-.355c2.117 1.502 1.766 4.51.324 6.711z" fill="#000"/></svg>