<svg width="24" height="25" fill="none" xmlns="http://www.w3.org/2000/svg"><path d="M17.377 0H6.623C2.97 0 0 3.09 0 6.888v11.185c0 3.798 2.971 6.888 6.623 6.888h10.754c3.652 0 6.623-3.09 6.623-6.888V6.888C24 3.09 21.029 0 17.377 0zm4.494 18.073c0 2.577-2.016 4.674-4.494 4.674H6.623c-2.478 0-4.494-2.097-4.494-4.674V6.888c0-2.577 2.016-4.673 4.494-4.673h10.754c2.478 0 4.494 2.096 4.494 4.673v11.185z" fill="#fff"/><path d="M12 6.05c-3.41 0-6.184 2.884-6.184 6.43 0 3.547 2.774 6.433 6.184 6.433s6.184-2.886 6.184-6.432c0-3.547-2.774-6.432-6.184-6.432zm0 10.648c-2.236 0-4.055-1.892-4.055-4.217 0-2.326 1.82-4.217 4.055-4.217 2.236 0 4.055 1.891 4.055 4.217 0 2.325-1.82 4.217-4.055 4.217zm6.444-12.527c-.41 0-.814.173-1.104.476a1.666 1.666 0 000 2.297c.29.301.693.475 1.104.475.411 0 .813-.174 1.104-.475a1.67 1.67 0 000-2.297 1.538 1.538 0 00-1.104-.476z" fill="#fff"/></svg>