<svg width="104" height="104" fill="none" xmlns="http://www.w3.org/2000/svg"><g clip-path="url(#clip0_59_1008)"><path d="M45.833 62.512V43.603c0-1.121-.91-2.03-2.032-2.03h-5.643V40.51c0-3.73-3.05-6.764-6.8-6.764-3.749 0-6.799 3.034-6.799 6.764v1.062H18.95c-1.122 0-2.031.91-2.031 2.031v18.909a6.377 6.377 0 006.37 6.37h16.174a6.377 6.377 0 006.37-6.37zM28.622 40.51c0-1.49 1.228-2.702 2.737-2.702 1.509 0 2.737 1.212 2.737 2.702v1.062h-5.474V40.51zm-7.64 22.002V45.635h3.577v2.035a2.031 2.031 0 004.063 0v-2.035h5.474v2.035a2.031 2.031 0 004.062 0v-2.035h3.612v16.877a2.31 2.31 0 01-2.306 2.307H23.288a2.31 2.31 0 01-2.307-2.307z" fill="#000"/><path d="M101.969 75.962h-1.906V17.39c0-4.564-3.713-8.277-8.277-8.277H12.214c-4.564 0-8.277 3.713-8.277 8.277v58.57H2.031A2.035 2.035 0 000 77.994v7.598c0 5.126 4.17 9.295 9.295 9.295h85.41c5.125 0 9.295-4.17 9.295-9.295v-7.598a2.03 2.03 0 00-2.031-2.031zM12.214 13.176h79.572A4.219 4.219 0 0196 17.391v5.654H8V17.39a4.219 4.219 0 014.214-4.215zM8 27.107h88v48.855H66.703c-1.122 0-2.032.91-2.032 2.031a2.355 2.355 0 01-2.352 2.353H41.68a2.355 2.355 0 01-2.352-2.353c0-1.121-.91-2.031-2.032-2.031H8V27.107zm91.938 58.484a5.238 5.238 0 01-5.233 5.233H9.295a5.238 5.238 0 01-5.232-5.233v-5.567h31.532a6.427 6.427 0 006.086 4.384h20.638a6.427 6.427 0 006.085-4.384h31.534v5.567z" fill="#000"/><path d="M50.859 19.902h2.282a2.031 2.031 0 000-4.063h-2.282a2.031 2.031 0 000 4.063z" fill="#000"/><path d="M55.362 55.227h32.541V65.44h-32.54V55.227zm0-17.77h32.541V47.67h-32.54V37.457z" fill="#0336DB"/></g><defs><clipPath id="clip0_59_1008"><path fill="#fff" d="M0 0h104v104H0z"/></clipPath></defs></svg>