<svg width="34" height="34" fill="none" xmlns="http://www.w3.org/2000/svg"><path d="M34 17c0 9.389-7.611 17-17 17S0 26.389 0 17 7.611 0 17 0s17 7.611 17 17z" fill="#C4C4C4"/><path d="M23.6 19.137a.434.434 0 01-.141.312h0a.55.55 0 01-.739 0h0l-4.946-4.666-.274-.26-.275.26-4.945 4.666s0 0 0 0a.55.55 0 01-.739 0h0a.434.434 0 01-.141-.312.434.434 0 01.141-.312h0l5.59-5.274s0 0 0 0a.536.536 0 01.369-.143c.138 0 .27.05.37.143 0 0 0 0 0 0l5.589 5.274h0c.093.087.14.2.141.312z" fill="#fff" stroke="#fff" stroke-width=".8"/></svg>