<svg width="102" height="103" fill="none" xmlns="http://www.w3.org/2000/svg"><g clip-path="url(#clip0_59_952)"><path d="M63.791 95.306h-45.56V26.763H28.9v10.361c0 1.111.892 2.012 1.992 2.012s1.992-.9 1.992-2.012v-10.36h27.322v10.36c0 1.111.892 2.012 1.992 2.012s1.993-.9 1.993-2.012v-10.36h10.336v21.314h3.985V24.75a2.002 2.002 0 00-1.993-2.011H64.191v-5.011C64.19 7.953 56.275 0 46.545 0c-2.23 0-4.364.418-6.33 1.18A17.485 17.485 0 0033.883 0c-9.73 0-17.645 7.953-17.645 17.729v5.01H3.91c-1.1 0-1.992.901-1.992 2.012v65.01c0 5.276 4.257 9.568 9.49 9.568h58.397c-1.968-1.073-4.052-2.404-6.013-4.023zM46.545 4.023c7.533 0 13.661 6.149 13.661 13.706v5.01H51.53v-5.01c0-5.476-2.484-10.38-6.379-13.635.459-.046.925-.07 1.395-.07zm-6.33 1.563c4.353 2.294 7.33 6.876 7.33 12.143v5.01h-14.66v-5.01c0-5.267 2.976-9.849 7.33-12.143zM20.222 17.73c0-7.557 6.129-13.706 13.661-13.706.471 0 .937.024 1.396.071a17.733 17.733 0 00-6.38 13.635v5.01h-8.677v-5.01zm-5.976 77.577h-2.84c-3.035 0-5.505-2.487-5.505-5.544V26.762h8.345v68.543z" fill="#000"/><path d="M93.8 54.737c-6.023 0-11.218-3.546-13.635-8.671h-7.083c-2.417 5.125-7.611 8.671-13.634 8.671-2.243 0-4.37-.492-6.284-1.373V78.42c0 18.326 23.46 24.58 23.46 24.58s23.459-6.254 23.459-24.58V53.364a14.973 14.973 0 01-6.284 1.373z" fill="#0336DB"/><path d="M75.853 81.605c-.525 0-1.03-.21-1.404-.585l-4.33-4.347a2.025 2.025 0 01-.008-2.845 1.978 1.978 0 012.818-.008l2.796 2.808 7.265-8.698a1.979 1.979 0 012.807-.24c.841.716.948 1.985.238 2.834l-8.659 10.367a1.985 1.985 0 01-1.523.714z" fill="#fff"/></g><defs><clipPath id="clip0_59_952"><path fill="#fff" d="M0 0h102v103H0z"/></clipPath></defs></svg>