<svg width="24" height="24" fill="none" xmlns="http://www.w3.org/2000/svg"><path d="M22.98 5.332c-.651-1.157-1.358-1.37-2.796-1.45-1.437-.097-5.05-.138-8.181-.138-3.136 0-6.752.04-8.187.136-1.435.083-2.143.294-2.8 1.452C.345 6.486 0 8.475 0 11.977v.012c0 3.486.345 5.49 1.016 6.633.657 1.156 1.363 1.366 2.798 1.463 1.438.084 5.053.134 8.189.134 3.13 0 6.744-.05 8.183-.132 1.438-.098 2.145-.307 2.796-1.463C23.657 17.48 24 15.477 24 11.99v-.012c0-3.503-.342-5.492-1.02-6.646zM9 16.474V7.488l7.5 4.493L9 16.474z" fill="#fff"/></svg>